#N canvas 889 56 1031 1001 10;
#X obj 592 509 vsl 30 128 0 127 0 0 empty empty empty 0 -9 0 10 -262144
-1 -1 0 1;
#X obj 592 684 ctlout 0 1;
#X obj 592 409 snapshot~;
#X obj 592 353 line~;
#X floatatom 592 452 0 0 0 0 - - -;
#X obj 652 243 loadbang;
#X obj 652 286 metro 10;
#X obj 592 484 int;
#X msg 610 110 0 4000;
#X obj 217 115 vsl 30 128 0 127 0 0 empty empty empty 0 -9 0 10 -262144
-1 -1 0 1;
#X obj 219 264 nbx 5 14 -1e+37 1e+37 0 0 empty empty empty 0 -8 0 10
-262144 -1 -1 0 256 0;
#X obj 69 136 snapshot~;
#X obj 69 90 line~;
#X floatatom 69 159 0 0 0 0 - - -;
#X obj 111 90 loadbang;
#X obj 111 113 metro 10;
#X obj 69 201 int;
#X msg 41 55 0 4000;
#X obj 177 101 tgl 15 0 empty empty empty 17 7 0 10 -262144 -1 -1 0
1;
#X obj 174 342 ctlout 0 2;
#X obj 345 521 vsl 30 128 0 127 0 0 empty empty empty 0 -9 0 10 -262144
-1 -1 0 1;
#X obj 345 659 nbx 5 14 -1e+37 1e+37 0 0 empty empty empty 0 -8 0 10
-262144 -1 -1 0 256 0;
#X obj 205 531 snapshot~;
#X obj 205 485 line~;
#X floatatom 205 554 0 0 0 0 - - -;
#X obj 247 485 loadbang;
#X obj 247 508 metro 10;
#X obj 205 596 int;
#X msg 177 450 0 4000;
#X obj 313 496 tgl 15 0 empty empty empty 17 7 0 10 -262144 -1 -1 0
1;
#X msg 45 26 127 10000;
#X msg 178 403 127 14000;
#X obj 310 737 ctlout 0 3;
#X obj 81 506 unpack f;
#X floatatom 81 550 5 0 0 0 - - -, f 5;
#X obj 66 609 ==;
#X obj 66 655 t b;
#X floatatom 592 647 5 0 0 0 - - -, f 5;
#X obj 504 220 unpack f;
#X floatatom 504 254 5 0 0 0 - - -, f 5;
#X obj 489 323 !=;
#X obj 504 172 t l b;
#X obj 652 375 spigot;
#X obj 719 243 tgl 27 0 empty empty empty 17 7 0 10 -262144 -1 -1 1
1;
#X floatatom 489 355 5 0 0 0 - - -, f 5;
#X obj 489 376 s c1_pause;
#X msg 504 110 127 4000;
#X obj 504 275 t b f b;
#X obj 592 258 spigot;
#X obj 625 211 r c1_pause;
#X obj 685 328 r c1_pause;
#X msg 415 130 64 5000;
#X msg 974 51 clear;
#X obj 738 79 s pd-sliders;
#X msg 738 40 obj 40 0 objslider 2;
#X obj 854 361 netreceive 9988;
#X obj 854 426 route key;
#X obj 889 524 route press;
#X obj 891 594 == 114;
#X obj 961 594 == 113;
#X floatatom 891 712 5 0 0 0 - - -, f 5;
#X obj 788 525 route release;
#X obj 891 674 spigot;
#X obj 961 616 t f f;
#X obj 891 616 t f f;
#X obj 773 594 == 114;
#X obj 835 595 == 113;
#X obj 773 616 t 0;
#X obj 918 648 == 1;
#X floatatom 961 713 5 0 0 0 - - -, f 5;
#X obj 961 675 spigot;
#X obj 988 649 == 1;
#X obj 835 617 t 0;
#X obj 918 779 == 1;
#X obj 890 813 spigot;
#X obj 891 748 t f f;
#X obj 988 779 == 1;
#X obj 961 813 spigot;
#X obj 961 748 t f f;
#X connect 0 0 37 0;
#X connect 2 0 4 0;
#X connect 3 0 2 0;
#X connect 4 0 7 0;
#X connect 4 0 40 0;
#X connect 5 0 6 0;
#X connect 6 0 42 0;
#X connect 7 0 0 0;
#X connect 8 0 41 0;
#X connect 9 0 10 0;
#X connect 9 0 19 0;
#X connect 11 0 13 0;
#X connect 12 0 11 0;
#X connect 13 0 16 0;
#X connect 14 0 15 0;
#X connect 15 0 11 0;
#X connect 16 0 9 0;
#X connect 17 0 12 0;
#X connect 18 0 15 0;
#X connect 20 0 21 0;
#X connect 20 0 32 0;
#X connect 22 0 24 0;
#X connect 23 0 22 0;
#X connect 24 0 27 0;
#X connect 24 0 35 0;
#X connect 25 0 26 0;
#X connect 26 0 22 0;
#X connect 27 0 20 0;
#X connect 28 0 23 0;
#X connect 28 0 33 0;
#X connect 29 0 26 0;
#X connect 30 0 12 0;
#X connect 31 0 23 0;
#X connect 31 0 33 0;
#X connect 33 0 34 0;
#X connect 34 0 35 1;
#X connect 35 0 36 0;
#X connect 37 0 1 0;
#X connect 38 0 39 0;
#X connect 39 0 47 0;
#X connect 40 0 44 0;
#X connect 41 0 38 0;
#X connect 41 0 48 0;
#X connect 42 0 2 0;
#X connect 43 0 6 0;
#X connect 44 0 45 0;
#X connect 46 0 41 0;
#X connect 47 0 4 0;
#X connect 47 1 40 1;
#X connect 48 0 3 0;
#X connect 49 0 48 1;
#X connect 50 0 42 1;
#X connect 51 0 41 0;
#X connect 52 0 53 0;
#X connect 54 0 53 0;
#X connect 55 0 56 0;
#X connect 56 0 57 0;
#X connect 56 0 61 0;
#X connect 57 0 58 0;
#X connect 57 0 59 0;
#X connect 58 0 64 0;
#X connect 59 0 63 0;
#X connect 60 0 75 0;
#X connect 61 0 65 0;
#X connect 61 0 66 0;
#X connect 62 0 60 0;
#X connect 63 0 70 0;
#X connect 63 1 71 0;
#X connect 64 0 62 0;
#X connect 64 1 68 0;
#X connect 65 0 67 0;
#X connect 66 0 72 0;
#X connect 67 0 60 0;
#X connect 68 0 62 1;
#X connect 69 0 78 0;
#X connect 70 0 69 0;
#X connect 71 0 70 1;
#X connect 72 0 69 0;
#X connect 73 0 74 1;
#X connect 75 0 74 0;
#X connect 75 1 73 0;
#X connect 76 0 77 1;
#X connect 78 0 77 0;
#X connect 78 1 76 0;
