#N canvas 0 56 1920 1001 10;
#X obj 457 741 vsl 30 128 0 127 0 1 empty empty empty 0 -9 0 10 -262144
-1 -1 0 1;
#X obj 457 539 snapshot~;
#X obj 457 483 line~;
#X floatatom 457 642 0 0 0 0 - - -;
#X obj 517 373 loadbang;
#X obj 517 416 metro 10;
#X msg 173 243 0 4000;
#X floatatom 457 918 5 0 0 0 - - -, f 5;
#X obj 369 350 unpack f;
#X floatatom 369 384 5 0 0 0 - - -, f 5;
#X obj 354 453 !=;
#X obj 369 302 t l b;
#X obj 517 505 spigot;
#X obj 584 373 tgl 27 0 empty empty empty 17 7 0 10 -262144 -1 -1 1
1;
#X floatatom 354 485 5 0 0 0 - - -, f 5;
#X obj 369 405 t b f b;
#X obj 457 388 spigot;
#X msg 171 306 64 5000;
#X obj 369 100 inlet;
#X obj 256 552 s \$1-pause;
#X obj 490 347 r \$1-pause;
#X obj 457 952 outlet;
#X obj 744 823 outlet;
#X obj 744 499 t b;
#X obj 744 591 f \$1;
#X obj 743 396 route number;
#X obj 457 594 spigot;
#X obj 550 468 r \$1-pause;
#X obj 490 568 r \$1-pause;
#X msg 191 217 0;
#X obj 429 110 r \$1-objslider;
#X obj 457 894 int;
#X msg 166 273 127 0;
#X connect 0 0 31 0;
#X connect 1 0 26 0;
#X connect 2 0 1 0;
#X connect 3 0 10 0;
#X connect 3 0 0 0;
#X connect 4 0 5 0;
#X connect 4 0 13 0;
#X connect 5 0 12 0;
#X connect 6 0 11 0;
#X connect 7 0 21 0;
#X connect 8 0 9 0;
#X connect 9 0 15 0;
#X connect 10 0 14 0;
#X connect 11 0 8 0;
#X connect 11 0 16 0;
#X connect 12 0 1 0;
#X connect 13 0 5 0;
#X connect 14 0 19 0;
#X connect 15 0 3 0;
#X connect 15 1 10 1;
#X connect 16 0 2 0;
#X connect 17 0 11 0;
#X connect 18 0 11 0;
#X connect 18 0 25 0;
#X connect 18 0 23 0;
#X connect 20 0 16 1;
#X connect 23 0 24 0;
#X connect 24 0 22 0;
#X connect 25 0 23 0;
#X connect 26 0 3 0;
#X connect 27 0 12 1;
#X connect 28 0 26 1;
#X connect 29 0 11 0;
#X connect 30 0 11 0;
#X connect 30 0 25 0;
#X connect 31 0 7 0;
#X connect 32 0 11 0;
#X coords 0 -1 1 1 132 242 1 416 703;
