#N canvas 290 215 830 672 10;
#X msg 290 206 devicename \$1;
#X obj 290 182 symbol;
#X obj 290 347 comport;
#X obj 61 64 inlet;
#X obj 290 71 inlet;
#X msg 106 118 10;
#X obj 61 287 print;
#X obj 61 86 t list b;
#X obj 61 174 pack list list list list float;
#X obj 205 253 print tty;
#X obj 329 381 route open;
#X obj 329 413 tgl 15 0 empty empty empty 17 7 0 10 -262144 -1 -1 0
1;
#X msg 158 324 info;
#X obj 158 293 t b;
#X obj 290 441 print comport;
#X msg 317 260 retries 0;
#X connect 0 0 9 0;
#X connect 0 0 2 0;
#X connect 0 0 15 0;
#X connect 1 0 0 0;
#X connect 2 0 14 0;
#X connect 2 1 10 0;
#X connect 3 0 7 0;
#X connect 4 0 1 0;
#X connect 5 0 8 4;
#X connect 7 0 8 0;
#X connect 7 1 5 0;
#X connect 8 0 2 0;
#X connect 8 0 6 0;
#X connect 10 0 11 0;
#X connect 12 0 2 0;
#X connect 13 0 12 0;
#X connect 15 0 2 0;
