#N canvas 480 56 960 1001 10;
#X floatatom 82 290 5 0 0 0 - - -, f 5;
#X floatatom 137 290 5 0 0 0 - - -, f 5;
#X floatatom 177 290 5 0 0 0 - - -, f 5;
#X obj 122 369 +;
#X obj 162 499 +;
#X obj 82 324 t f f;
#X obj 82 266 == \$1;
#X obj 137 266 == \$2;
#X floatatom 162 628 5 0 0 0 - - -, f 5;
#X obj 162 597 spigot;
#X obj 162 539 t f f;
#X obj 83 -17 inlet;
#X obj 83 75 unpack f f f;
#X obj 162 649 outlet;
#X obj 138 -17 inlet;
#X obj 194 -17 inlet;
#X obj 252 -17 inlet;
#X obj 329 145 f \$1;
#X floatatom 329 167 5 0 0 0 - - -, f 5;
#X floatatom 388 167 5 0 0 0 - - -, f 5;
#X floatatom 436 167 5 0 0 0 - - -, f 5;
#X obj 388 145 f \$2;
#X obj 436 145 f \$3;
#X obj 401 22 loadbang;
#X obj 206 74 t b;
#X obj 189 571 == 3;
#X obj 177 416 f;
#X obj 122 391 t f b;
#X floatatom 83 154 5 0 0 0 - - -, f 5;
#X floatatom 117 154 5 0 0 0 - - -, f 5;
#X obj 177 266 > \$3;
#X connect 0 0 5 0;
#X connect 1 0 3 1;
#X connect 2 0 26 1;
#X connect 3 0 27 0;
#X connect 4 0 10 0;
#X connect 5 0 3 0;
#X connect 6 0 0 0;
#X connect 7 0 1 0;
#X connect 8 0 13 0;
#X connect 9 0 8 0;
#X connect 10 0 9 0;
#X connect 10 1 25 0;
#X connect 11 0 12 0;
#X connect 11 0 24 0;
#X connect 12 0 28 0;
#X connect 12 1 29 0;
#X connect 12 2 30 0;
#X connect 14 0 24 0;
#X connect 14 0 17 1;
#X connect 15 0 21 1;
#X connect 15 0 24 0;
#X connect 16 0 22 1;
#X connect 16 0 24 0;
#X connect 17 0 18 0;
#X connect 21 0 19 0;
#X connect 22 0 20 0;
#X connect 23 0 24 0;
#X connect 24 0 17 0;
#X connect 24 0 21 0;
#X connect 24 0 22 0;
#X connect 25 0 9 1;
#X connect 26 0 4 1;
#X connect 27 0 4 0;
#X connect 27 1 26 0;
#X connect 28 0 6 0;
#X connect 29 0 7 0;
#X connect 30 0 2 0;
