#N canvas 0 56 960 1001 10;
#X obj 36 53 objslider 1;
#X msg 206 179 127 100;
#X msg 217 124 0 1000;
#X obj 98 467 tcponeoffsend 9989;
#X obj 428 86 objslider 2;
#X obj 98 426 pack f f;
#X obj 622 418 objslider 3;
#X connect 0 0 5 0;
#X connect 0 1 5 1;
#X connect 1 0 0 0;
#X connect 1 0 4 0;
#X connect 1 0 6 0;
#X connect 2 0 0 0;
#X connect 2 0 4 0;
#X connect 2 0 6 0;
#X connect 4 0 5 0;
#X connect 4 1 5 1;
#X connect 5 0 3 0;
#X connect 6 0 5 0;
#X connect 6 1 5 1;
