#N canvas 889 56 1031 1001 10;
#X obj 592 509 vsl 30 128 0 127 0 0 empty empty empty 0 -9 0 10 -262144
-1 -1 0 1;
#X obj 592 684 ctlout 0 1;
#X obj 592 409 snapshot~;
#X obj 592 353 line~;
#X floatatom 592 452 0 0 0 0 - - -;
#X obj 652 243 loadbang;
#X obj 652 286 metro 10;
#X obj 592 484 int;
#X msg 504 83 0 4000;
#X obj 217 115 vsl 30 128 0 127 0 0 empty empty empty 0 -9 0 10 -262144
-1 -1 0 1;
#X obj 219 264 nbx 5 14 -1e+37 1e+37 0 0 empty empty empty 0 -8 0 10
-262144 -1 -1 0 256 0;
#X obj 69 136 snapshot~;
#X obj 69 90 line~;
#X floatatom 69 159 0 0 0 0 - - -;
#X obj 111 90 loadbang;
#X obj 111 113 metro 10;
#X obj 69 201 int;
#X msg 41 55 0 4000;
#X obj 177 101 tgl 15 0 empty empty empty 17 7 0 10 -262144 -1 -1 0
1;
#X obj 174 342 ctlout 0 2;
#X obj 345 521 vsl 30 128 0 127 0 0 empty empty empty 0 -9 0 10 -262144
-1 -1 0 1;
#X obj 345 659 nbx 5 14 -1e+37 1e+37 0 0 empty empty empty 0 -8 0 10
-262144 -1 -1 0 256 0;
#X obj 205 531 snapshot~;
#X obj 205 485 line~;
#X floatatom 205 554 0 0 0 0 - - -;
#X obj 247 485 loadbang;
#X obj 247 508 metro 10;
#X obj 205 596 int;
#X msg 177 450 0 4000;
#X obj 313 496 tgl 15 0 empty empty empty 17 7 0 10 -262144 -1 -1 0
1;
#X msg 45 26 127 10000;
#X msg 178 403 127 14000;
#X obj 310 737 ctlout 0 3;
#X obj 81 506 unpack f;
#X floatatom 81 550 5 0 0 0 - - -, f 5;
#X obj 66 609 ==;
#X obj 64 655 t b;
#X floatatom 592 647 5 0 0 0 - - -, f 5;
#X obj 504 220 unpack f;
#X floatatom 504 254 5 0 0 0 - - -, f 5;
#X obj 489 323 !=;
#X obj 504 172 t l b;
#X obj 652 375 spigot;
#X obj 719 243 tgl 27 0 empty empty empty 17 7 0 10 -262144 -1 -1 1
1;
#X floatatom 489 355 5 0 0 0 - - -, f 5;
#X obj 489 376 s c1_pause;
#X msg 504 110 127 4000;
#X obj 504 275 t b f b;
#X obj 592 258 spigot;
#X obj 625 211 r c1_pause;
#X obj 685 328 r c1_pause;
#X msg 415 130 64 5000;
#N canvas 358 139 450 323 sliders 0;
#X obj 100 65 slider;
#X obj 0 0 pd-print;
#X obj 0 0 printer;
#X obj 0 0 printer;
#X obj 0 0 printer;
#X obj 0 0 printer;
#X obj 0 0 pd-printer;
#X obj 0 0 int;
#X restore 883 143 pd sliders;
#X msg 974 524 clear;
#X obj 738 541 s pd-sliders;
#X msg 738 502 obj 20 0 slider;
#X connect 0 0 37 0;
#X connect 2 0 4 0;
#X connect 3 0 2 0;
#X connect 4 0 7 0;
#X connect 4 0 40 0;
#X connect 5 0 6 0;
#X connect 6 0 42 0;
#X connect 7 0 0 0;
#X connect 8 0 41 0;
#X connect 9 0 10 0;
#X connect 9 0 19 0;
#X connect 11 0 13 0;
#X connect 12 0 11 0;
#X connect 13 0 16 0;
#X connect 14 0 15 0;
#X connect 15 0 11 0;
#X connect 16 0 9 0;
#X connect 17 0 12 0;
#X connect 18 0 15 0;
#X connect 20 0 21 0;
#X connect 20 0 32 0;
#X connect 22 0 24 0;
#X connect 23 0 22 0;
#X connect 24 0 27 0;
#X connect 24 0 35 0;
#X connect 25 0 26 0;
#X connect 26 0 22 0;
#X connect 27 0 20 0;
#X connect 28 0 23 0;
#X connect 28 0 33 0;
#X connect 29 0 26 0;
#X connect 30 0 12 0;
#X connect 31 0 23 0;
#X connect 31 0 33 0;
#X connect 33 0 34 0;
#X connect 34 0 35 1;
#X connect 35 0 36 0;
#X connect 37 0 1 0;
#X connect 38 0 39 0;
#X connect 39 0 47 0;
#X connect 40 0 44 0;
#X connect 41 0 38 0;
#X connect 41 0 48 0;
#X connect 42 0 2 0;
#X connect 43 0 6 0;
#X connect 44 0 45 0;
#X connect 46 0 41 0;
#X connect 47 0 4 0;
#X connect 47 1 40 1;
#X connect 48 0 3 0;
#X connect 49 0 48 1;
#X connect 50 0 42 1;
#X connect 51 0 41 0;
#X connect 53 0 54 0;
#X connect 55 0 54 0;
