#N canvas 0 328 840 546 10;
#X obj 276 294 netsend;
#X msg 276 237 disconnect;
#X obj 134 -123 inlet;
#X msg 276 148 connect localhost \$1;
#X obj 276 112 \$1;
#X obj 134 -21 t b l b;
#X msg 276 192 send \$1-\$2;
#X connect 1 0 0 0;
#X connect 2 0 5 0;
#X connect 3 0 0 0;
#X connect 4 0 3 0;
#X connect 5 0 1 0;
#X connect 5 1 6 0;
#X connect 5 2 4 0;
#X connect 6 0 0 0;
