#N canvas 630 148 555 600 10;
#X floatatom 162 210 5 0 0 0 - - -, f 5;
#X floatatom 217 210 5 0 0 0 - - -, f 5;
#X floatatom 257 210 5 0 0 0 - - -, f 5;
#X obj 202 289 +;
#X obj 242 289 +;
#X obj 162 244 t f f;
#X obj 227 338 +;
#X obj 202 311 t f;
#X floatatom 227 360 5 0 0 0 - - -, f 5;
#X obj 162 186 == \$1;
#X obj 217 186 == \$2;
#X obj 257 186 > \$3;
#X floatatom 227 489 5 0 0 0 - - -, f 5;
#X obj 227 458 spigot;
#X obj 227 400 t f f;
#X obj 254 432 == 1;
#X obj 83 -17 inlet;
#X obj 83 5 unpack f f f;
#X obj 227 510 outlet;
#X floatatom 341 42 5 0 0 0 - - -, f 5;
#X floatatom 254 37 5 0 0 0 - - -, f 5;
#X floatatom 199 36 5 0 0 0 - - -, f 5;
#X obj 198 -5 inlet;
#X obj 287 -4 inlet;
#X obj 358 -7 inlet;
#X connect 0 0 5 0;
#X connect 1 0 3 1;
#X connect 2 0 4 1;
#X connect 3 0 7 0;
#X connect 4 0 6 1;
#X connect 5 0 3 0;
#X connect 5 1 4 0;
#X connect 6 0 8 0;
#X connect 7 0 6 0;
#X connect 8 0 14 0;
#X connect 9 0 0 0;
#X connect 10 0 1 0;
#X connect 11 0 2 0;
#X connect 12 0 18 0;
#X connect 13 0 12 0;
#X connect 14 0 13 0;
#X connect 14 1 15 0;
#X connect 15 0 13 1;
#X connect 16 0 17 0;
#X connect 17 0 9 0;
#X connect 17 1 10 0;
#X connect 17 2 11 0;
#X connect 22 0 21 0;
#X connect 23 0 20 0;
#X connect 24 0 19 0;
